<?xml version="1.0" standalone="no"?>
<!DOCTYPE svg PUBLIC "-//W3C//DTD SVG 20010904//EN"
 "http://www.w3.org/TR/2001/REC-SVG-20010904/DTD/svg10.dtd">
<svg version="1.0" xmlns="http://www.w3.org/2000/svg"
 width="500.000000pt" height="500.000000pt" viewBox="0 0 500.000000 500.000000"
 preserveAspectRatio="xMidYMid meet">
<metadata>
Created by potrace 1.11, written by Peter Selinger 2001-2013
</metadata>
<g transform="translate(0.000000,500.000000) scale(0.100000,-0.100000)"
fill="#000000" stroke="none">
<path d="M4540 4070 c-25 -5 -52 -11 -60 -13 -8 -2 -31 -7 -50 -11 -74 -17
-267 -108 -290 -136 -3 -4 -13 -11 -23 -17 -39 -21 -126 -116 -132 -144 -8
-37 21 -86 76 -130 55 -43 112 -42 211 4 40 18 89 39 108 46 19 7 44 17 55 21
11 5 67 22 125 39 321 95 362 117 364 194 1 56 -25 90 -93 123 -45 22 -72 27
-150 30 -53 1 -116 -1 -141 -6z"/>
<path d="M255 3971 c-63 -16 -102 -40 -151 -93 -101 -107 -79 -159 81 -194 29
-7 109 -14 213 -18 313 -15 628 -115 927 -294 191 -115 297 -202 541 -446 200
-201 219 -218 284 -267 94 -70 137 -75 187 -22 33 34 35 40 30 84 -9 72 -56
165 -158 309 -13 19 -26 37 -29 40 -3 3 -33 39 -67 80 -82 102 -328 350 -433
436 -110 91 -262 196 -336 232 -58 29 -225 75 -314 87 -14 2 -65 10 -115 19
-104 18 -149 24 -225 32 -30 3 -73 7 -95 9 -88 9 -312 13 -340 6z"/>
<path d="M2427 3914 c-3 -3 -136 -16 -167 -16 -8 0 -33 -4 -55 -9 -22 -4 -62
-11 -90 -15 -27 -3 -58 -10 -67 -15 -10 -6 -18 -8 -18 -5 0 3 -25 -4 -55 -14
-195 -67 -212 -150 -50 -236 32 -17 122 -8 230 24 127 38 159 45 265 57 70 9
320 9 359 1 13 -3 49 -8 80 -12 179 -19 443 -94 586 -166 175 -88 451 -314
756 -618 243 -242 351 -379 364 -463 17 -104 77 -115 159 -28 25 26 28 35 24
75 -7 58 -58 164 -144 302 -79 127 -204 304 -250 354 -18 19 -43 48 -56 65
-86 110 -291 281 -463 387 -133 81 -499 260 -560 273 -5 1 -30 7 -55 14 -25 7
-54 15 -65 17 -11 2 -33 6 -48 10 -15 3 -47 8 -70 11 -47 5 -605 12 -610 7z"/>
<path d="M4490 3621 c-55 -15 -170 -67 -219 -100 -11 -7 1 -30 62 -113 142
-195 194 -240 281 -240 125 0 334 113 367 199 31 83 -14 160 -130 217 -101 50
-249 65 -361 37z"/>
<path d="M2487 3574 c-1 -1 -38 -4 -82 -7 -142 -10 -233 -50 -276 -121 -26
-42 -24 -88 4 -113 62 -57 134 -70 417 -77 113 -3 216 -7 230 -10 14 -2 43 -7
65 -10 196 -26 338 -78 537 -198 140 -85 201 -127 329 -230 226 -182 361 -322
523 -547 135 -186 209 -209 245 -75 41 151 -163 453 -553 819 -155 146 -435
351 -565 415 -77 38 -211 80 -301 95 -19 3 -51 10 -70 15 -19 5 -57 11 -85 15
-27 3 -66 7 -85 10 -59 9 -327 24 -333 19z"/>
<path d="M277 3531 c-70 -23 -91 -37 -147 -93 -59 -60 -100 -123 -107 -162 -4
-26 0 -38 18 -56 47 -44 99 -53 359 -65 98 -4 108 -5 225 -29 112 -23 182 -45
305 -93 238 -94 444 -218 670 -405 176 -145 257 -194 338 -205 67 -10 127 43
116 101 -23 131 -423 518 -758 735 -155 100 -443 219 -625 257 -13 3 -52 11
-87 18 -97 21 -238 19 -307 -3z"/>
<path d="M2580 3138 c-97 -10 -137 -24 -157 -54 -50 -77 5 -193 112 -234 17
-6 59 -14 95 -17 83 -6 163 -26 257 -64 80 -31 218 -102 244 -125 8 -8 19 -14
22 -14 4 0 25 -12 46 -27 21 -16 49 -35 61 -43 104 -70 269 -208 400 -336 273
-266 325 -314 345 -314 17 0 117 47 171 81 65 40 45 95 -105 299 -14 19 -29
39 -33 45 -22 29 -111 128 -168 185 -322 323 -687 555 -939 596 -18 3 -43 8
-55 10 -11 2 -61 7 -111 10 -49 3 -94 6 -100 8 -5 1 -44 -2 -85 -6z"/>
<path d="M4754 3032 c-69 -55 -74 -196 -11 -274 18 -23 79 -48 114 -48 40 0
95 32 113 65 35 62 -9 182 -88 242 -49 37 -94 43 -128 15z"/>
<path d="M205 2974 c-81 -21 -114 -66 -110 -152 2 -39 8 -51 35 -74 18 -15 37
-25 41 -22 4 2 10 0 13 -5 6 -9 55 -21 311 -76 190 -41 403 -114 560 -193 28
-13 104 -59 170 -101 173 -110 218 -130 280 -126 49 3 154 45 174 68 56 70
-48 183 -364 394 -290 194 -426 256 -605 279 -54 7 -482 14 -505 8z"/>
<path d="M2645 2683 c-22 -9 -80 -44 -128 -77 -282 -194 -329 -226 -332 -226
-2 0 -39 -22 -82 -49 -104 -64 -303 -160 -408 -196 -66 -23 -194 -51 -222 -49
-13 1 -23 -3 -23 -7 0 -5 4 -9 9 -9 17 0 21 -32 9 -74 -17 -63 -17 -84 5 -106
36 -39 81 -50 200 -50 182 0 483 79 635 166 23 14 42 23 42 20 0 -11 346 204
392 243 7 6 38 30 68 54 30 23 64 51 76 62 12 11 34 31 50 44 16 13 60 51 97
84 l68 60 -33 15 c-18 7 -55 22 -83 32 -27 10 -88 32 -135 49 -95 34 -146 38
-205 14z"/>
<path d="M372 2489 c-65 -12 -190 -58 -231 -84 -34 -22 -83 -66 -107 -97 -22
-28 -33 -81 -30 -146 5 -94 21 -127 83 -170 60 -42 108 -22 373 154 247 164
315 228 291 273 -12 21 -60 48 -99 56 -12 2 -27 7 -33 10 -16 10 -199 13 -247
4z"/>
<path d="M3143 2436 c-38 -19 -95 -64 -163 -127 -128 -119 -294 -245 -431
-327 -81 -49 -265 -141 -292 -146 -7 -2 -25 -8 -42 -15 -60 -23 -81 -30 -155
-50 -159 -42 -218 -49 -430 -56 -311 -8 -360 -27 -360 -134 0 -54 35 -80 174
-128 200 -67 460 -96 636 -69 359 55 874 316 1140 578 123 120 210 249 210
307 0 38 -39 80 -134 146 -65 44 -99 49 -153 21z"/>
<path d="M938 2342 c-29 -14 -62 -34 -73 -43 -228 -192 -371 -292 -565 -398
-204 -112 -286 -196 -282 -294 3 -101 83 -148 206 -122 122 25 344 165 506
319 106 101 159 166 238 293 126 200 112 316 -30 245z"/>
<path d="M4895 2343 c-40 -22 -92 -60 -140 -105 -180 -166 -356 -284 -615
-412 -261 -129 -324 -177 -277 -213 39 -32 191 -33 357 -3 263 48 406 124 542
292 18 22 38 45 43 52 55 60 150 246 161 313 13 86 -9 109 -71 76z"/>
<path d="M1167 2198 c-9 -7 -21 -35 -27 -63 -18 -80 -72 -163 -190 -289 -186
-198 -341 -316 -585 -446 -115 -62 -267 -164 -314 -211 -38 -39 -41 -47 -32
-101 2 -13 45 -37 78 -43 173 -30 416 48 578 187 275 235 634 641 651 736 9
50 44 112 63 112 9 0 -3 9 -26 19 -22 11 -52 33 -65 51 -39 53 -96 74 -131 48z"/>
<path d="M3575 2098 c-28 -16 -66 -48 -175 -148 -158 -145 -240 -209 -422
-326 -227 -147 -524 -279 -693 -308 -23 -4 -91 -17 -120 -23 -58 -12 -359 -23
-379 -14 -5 2 -30 5 -55 7 -45 2 -145 19 -293 48 -37 8 -60 13 -123 30 -93 24
-160 31 -243 27 -27 -1 -82 -52 -82 -74 0 -22 47 -75 90 -102 73 -46 261 -114
356 -129 20 -4 39 -8 43 -10 3 -2 42 -7 86 -11 44 -4 83 -8 86 -10 10 -7 262
-17 409 -17 137 0 297 9 311 18 4 2 24 6 45 10 227 35 522 151 822 323 126 72
148 85 217 129 294 190 386 332 300 465 -37 56 -74 96 -107 113 -32 17 -46 17
-73 2z"/>
<path d="M4895 1736 c-57 -19 -151 -59 -247 -107 -187 -92 -327 -135 -503
-155 -16 -1 -115 -5 -220 -9 -104 -3 -217 -7 -250 -10 -152 -14 -218 -40 -192
-76 11 -14 74 -41 87 -37 3 1 14 -3 25 -9 11 -6 36 -14 55 -17 65 -11 95 -16
130 -22 19 -4 46 -8 60 -9 14 -1 66 -6 115 -10 50 -4 93 -9 97 -11 18 -11 349
-3 443 10 17 3 50 7 75 11 25 3 52 8 60 10 8 2 35 7 60 10 79 11 126 49 218
170 44 59 97 202 90 246 -4 29 -42 34 -103 15z"/>
<path d="M3237 1229 c-52 -12 -145 -78 -152 -108 -9 -35 26 -66 114 -100 79
-30 225 -65 321 -76 30 -3 66 -8 80 -10 178 -27 761 -27 945 1 17 2 46 6 65 9
111 15 183 44 248 102 57 50 89 98 72 108 -23 14 -110 18 -345 16 -729 -8
-889 -3 -1020 31 -22 6 -51 12 -65 14 -14 3 -31 7 -39 10 -29 10 -187 12 -224
3z"/>
</g>
</svg>
